<?xml version="1.0" encoding="utf-8"?>
<!-- Generator: Adobe Illustrator 19.1.0, SVG Export Plug-In . SVG Version: 6.00 Build 0)  -->
<svg version="1.1" id="Layer_1" xmlns:sketch="http://www.bohemiancoding.com/sketch/ns"
	 xmlns="http://www.w3.org/2000/svg" xmlns:xlink="http://www.w3.org/1999/xlink" x="0px" y="0px" viewBox="-379 597 32 32"
	 style="enable-background:new -379 597 32 32;" xml:space="preserve">
<style type="text/css">
	.st0{fill:#F38B29;}
</style>
<title></title>
<desc></desc>
<g id="Page-1">
	<g id="icon-27-one-finger-click">
		<path id="one-finger-click" class="st0" d="M-365.9,597v4h1v-4H-365.9L-365.9,597z M-359.5,599.6l-3.1,2.5l0.6,0.8l3.1-2.5
			L-359.5,599.6L-359.5,599.6z M-357.5,606.3l-3.9-0.9l-0.2,1l3.9,0.9L-357.5,606.3L-357.5,606.3z M-373.1,607.3l3.9-0.9l-0.2-1
			l-3.9,0.9L-373.1,607.3L-373.1,607.3z M-371.9,600.4l3.1,2.5l0.6-0.8l-3.1-2.5L-371.9,600.4L-371.9,600.4z M-359.4,628
			c4.1,0,7.5-3.6,7.5-7.5c0,0,0,2.3,0,0v-3.8v-2.2c0-0.8-0.7-1.5-1.5-1.5c-0.8,0-1.5,0.7-1.5,1.5v0.5h-1v-2.5c0-0.8-0.7-1.5-1.5-1.5
			c-0.8,0-1.5,0.7-1.5,1.5v1.5h-1v-2.5c0-0.8-0.7-1.5-1.5-1.5c-0.8,0-1.5,0.7-1.5,1.5v3.5h-1v-10.5c0-0.8-0.7-1.5-1.5-1.5
			c-0.8,0-1.5,0.7-1.5,1.5v11.3c-2.1-2.2-4.8-4.6-5.9-3.5c-1.1,1.1,1.7,4.1,5.6,10.7C-365.4,625.9-363.1,628-359.4,628L-359.4,628z
			 M-350.9,620.5c0,4.7-3.8,8.5-8.5,8.5c-3.1,0-6.4-1.5-8.7-5.6c-3.3-5.9-7.4-9.8-5.4-11.8c1.4-1.4,3.7-0.1,5.6,1.8l0,0v-8.9
			c0-1.4,1.1-2.5,2.5-2.5c1.4,0,2.5,1.1,2.5,2.5v5c0.4-0.3,0.9-0.5,1.5-0.5c1.1,0,2,0.7,2.3,1.6c0.4-0.4,1-0.6,1.7-0.6
			c1.4,0,2.5,1.1,2.5,2.5v0c0.4-0.3,0.9-0.5,1.5-0.5c1.4,0,2.5,1.1,2.5,2.5V620.5L-350.9,620.5z"/>
	</g>
</g>
</svg>
